<mxfile host="Electron" agent="Mozilla/5.0 (Windows NT 10.0; Win64; x64) AppleWebKit/537.36 (KHTML, like Gecko) draw.io/26.2.15 Chrome/134.0.6998.205 Electron/35.2.1 Safari/537.36" version="26.2.15">
  <diagram name="處理舉報活動圖" id="nZUwKnqzib7T0NQeSUnV">
    <mxGraphModel dx="3370" dy="903" grid="1" gridSize="10" guides="1" tooltips="1" connect="1" arrows="1" fold="1" page="1" pageScale="1" pageWidth="827" pageHeight="1169" math="0" shadow="0">
      <root>
        <mxCell id="0" />
        <mxCell id="1" parent="0" />
        <mxCell id="-EUB2d9aFVAIrPmYeYgX-1" value="" style="ellipse;shape=startState;fillColor=#000000;strokeColor=#000000;" vertex="1" parent="1">
          <mxGeometry x="-1700" y="464" width="30" height="30" as="geometry" />
        </mxCell>
        <mxCell id="-EUB2d9aFVAIrPmYeYgX-2" value="" style="edgeStyle=elbowEdgeStyle;elbow=horizontal;verticalAlign=bottom;endArrow=open;endSize=8;strokeColor=#000000;endFill=1;rounded=0;fillColor=#000000;" edge="1" parent="1" source="-EUB2d9aFVAIrPmYeYgX-1">
          <mxGeometry x="100" y="40" as="geometry">
            <mxPoint x="-1684.3571428571427" y="534" as="targetPoint" />
          </mxGeometry>
        </mxCell>
        <mxCell id="-EUB2d9aFVAIrPmYeYgX-3" value="" style="endArrow=open;strokeColor=#000000;endFill=1;rounded=0" edge="1" parent="1" target="-EUB2d9aFVAIrPmYeYgX-6">
          <mxGeometry relative="1" as="geometry">
            <mxPoint x="-1685" y="576" as="sourcePoint" />
            <mxPoint x="-1685.25" y="636" as="targetPoint" />
          </mxGeometry>
        </mxCell>
        <mxCell id="-EUB2d9aFVAIrPmYeYgX-4" value="管理者" style="swimlane;whiteSpace=wrap;startSize=30;fontSize=20;" vertex="1" parent="1">
          <mxGeometry x="-1800" y="430" width="270" height="770" as="geometry" />
        </mxCell>
        <mxCell id="-EUB2d9aFVAIrPmYeYgX-5" value="" style="ellipse;html=1;shape=endState;fillColor=#000000;strokeColor=#000000;" vertex="1" parent="-EUB2d9aFVAIrPmYeYgX-4">
          <mxGeometry x="112.81" y="695" width="30" height="30" as="geometry" />
        </mxCell>
        <mxCell id="-EUB2d9aFVAIrPmYeYgX-6" value="開啟舉報紀錄" style="fontSize=20;" vertex="1" parent="-EUB2d9aFVAIrPmYeYgX-4">
          <mxGeometry x="37.5" y="105" width="155" height="50" as="geometry" />
        </mxCell>
        <mxCell id="-EUB2d9aFVAIrPmYeYgX-37" value="選擇處理方式(刪除&#xa;內容、警告使用者)" style="fontSize=20;" vertex="1" parent="-EUB2d9aFVAIrPmYeYgX-4">
          <mxGeometry x="37.5" y="555" width="185.62" height="50" as="geometry" />
        </mxCell>
        <mxCell id="-EUB2d9aFVAIrPmYeYgX-47" style="edgeStyle=orthogonalEdgeStyle;rounded=0;orthogonalLoop=1;jettySize=auto;html=1;entryX=0.5;entryY=0;entryDx=0;entryDy=0;" edge="1" parent="-EUB2d9aFVAIrPmYeYgX-4" source="-EUB2d9aFVAIrPmYeYgX-41" target="-EUB2d9aFVAIrPmYeYgX-5">
          <mxGeometry relative="1" as="geometry">
            <Array as="points">
              <mxPoint x="446" y="660" />
              <mxPoint x="128" y="660" />
            </Array>
          </mxGeometry>
        </mxCell>
        <mxCell id="-EUB2d9aFVAIrPmYeYgX-41" value="更新舉報紀錄為已處理" style="fontSize=20;" vertex="1" parent="-EUB2d9aFVAIrPmYeYgX-4">
          <mxGeometry x="335.87" y="555" width="220" height="50" as="geometry" />
        </mxCell>
        <mxCell id="-EUB2d9aFVAIrPmYeYgX-42" style="edgeStyle=orthogonalEdgeStyle;rounded=0;orthogonalLoop=1;jettySize=auto;html=1;entryX=0;entryY=0.5;entryDx=0;entryDy=0;" edge="1" parent="-EUB2d9aFVAIrPmYeYgX-4" source="-EUB2d9aFVAIrPmYeYgX-37" target="-EUB2d9aFVAIrPmYeYgX-41">
          <mxGeometry relative="1" as="geometry" />
        </mxCell>
        <mxCell id="-EUB2d9aFVAIrPmYeYgX-33" value="&lt;font style=&quot;font-size: 15px;&quot;&gt;[否]&lt;/font&gt;" style="whiteSpace=wrap;html=1;strokeColor=none;fillColor=none;" vertex="1" parent="-EUB2d9aFVAIrPmYeYgX-4">
          <mxGeometry x="159.9999999999999" y="475" width="57.25" height="20" as="geometry" />
        </mxCell>
        <mxCell id="-EUB2d9aFVAIrPmYeYgX-32" value="&lt;font style=&quot;font-size: 15px;&quot;&gt;[是]&lt;/font&gt;" style="whiteSpace=wrap;html=1;strokeColor=none;fillColor=none;" vertex="1" parent="-EUB2d9aFVAIrPmYeYgX-4">
          <mxGeometry x="92.49999999999989" y="525" width="40" height="20" as="geometry" />
        </mxCell>
        <mxCell id="-EUB2d9aFVAIrPmYeYgX-40" style="edgeStyle=orthogonalEdgeStyle;rounded=0;orthogonalLoop=1;jettySize=auto;html=1;" edge="1" parent="-EUB2d9aFVAIrPmYeYgX-4" source="-EUB2d9aFVAIrPmYeYgX-30" target="-EUB2d9aFVAIrPmYeYgX-37">
          <mxGeometry relative="1" as="geometry" />
        </mxCell>
        <mxCell id="-EUB2d9aFVAIrPmYeYgX-30" value="&#xa;" style="rhombus;fillColor=#FFFFFF;strokeColor=#000000;" vertex="1" parent="-EUB2d9aFVAIrPmYeYgX-4">
          <mxGeometry x="112.80999999999989" y="485" width="35" height="20" as="geometry" />
        </mxCell>
        <mxCell id="-EUB2d9aFVAIrPmYeYgX-20" value="判斷是否合理" style="fontSize=20;" vertex="1" parent="-EUB2d9aFVAIrPmYeYgX-4">
          <mxGeometry x="52.50000000000006" y="385" width="155.62" height="50" as="geometry" />
        </mxCell>
        <mxCell id="-EUB2d9aFVAIrPmYeYgX-36" style="edgeStyle=orthogonalEdgeStyle;rounded=0;orthogonalLoop=1;jettySize=auto;html=1;entryX=0.5;entryY=0;entryDx=0;entryDy=0;" edge="1" parent="-EUB2d9aFVAIrPmYeYgX-4" source="-EUB2d9aFVAIrPmYeYgX-20" target="-EUB2d9aFVAIrPmYeYgX-30">
          <mxGeometry relative="1" as="geometry" />
        </mxCell>
        <mxCell id="-EUB2d9aFVAIrPmYeYgX-24" style="edgeStyle=orthogonalEdgeStyle;rounded=0;orthogonalLoop=1;jettySize=auto;html=1;entryX=0.5;entryY=0;entryDx=0;entryDy=0;" edge="1" parent="-EUB2d9aFVAIrPmYeYgX-4" source="-EUB2d9aFVAIrPmYeYgX-19" target="-EUB2d9aFVAIrPmYeYgX-20">
          <mxGeometry relative="1" as="geometry">
            <Array as="points">
              <mxPoint x="454.5" y="365" />
              <mxPoint x="130.5" y="365" />
            </Array>
          </mxGeometry>
        </mxCell>
        <mxCell id="-EUB2d9aFVAIrPmYeYgX-8" value="點選一筆舉報" style="fontSize=20;" vertex="1" parent="-EUB2d9aFVAIrPmYeYgX-4">
          <mxGeometry x="40" y="240" width="155.62" height="50" as="geometry" />
        </mxCell>
        <mxCell id="-EUB2d9aFVAIrPmYeYgX-22" style="edgeStyle=orthogonalEdgeStyle;rounded=0;orthogonalLoop=1;jettySize=auto;html=1;" edge="1" parent="-EUB2d9aFVAIrPmYeYgX-4" source="-EUB2d9aFVAIrPmYeYgX-8" target="-EUB2d9aFVAIrPmYeYgX-19">
          <mxGeometry relative="1" as="geometry" />
        </mxCell>
        <mxCell id="-EUB2d9aFVAIrPmYeYgX-19" value="顯示舉報類型與內容" style="fontSize=20;" vertex="1" parent="-EUB2d9aFVAIrPmYeYgX-4">
          <mxGeometry x="361.12" y="295" width="186.13" height="50" as="geometry" />
        </mxCell>
        <mxCell id="-EUB2d9aFVAIrPmYeYgX-10" value="系統" style="swimlane;whiteSpace=wrap;startSize=30;fontSize=20;" vertex="1" parent="1">
          <mxGeometry x="-1530" y="430" width="370" height="770" as="geometry" />
        </mxCell>
        <mxCell id="-EUB2d9aFVAIrPmYeYgX-11" value="顯示所有舉報紀錄" style="fontSize=20;" vertex="1" parent="-EUB2d9aFVAIrPmYeYgX-10">
          <mxGeometry x="70" y="105" width="203.37" height="50" as="geometry" />
        </mxCell>
        <mxCell id="-EUB2d9aFVAIrPmYeYgX-38" value="更新舉報紀錄為無效" style="fontSize=20;" vertex="1" parent="-EUB2d9aFVAIrPmYeYgX-10">
          <mxGeometry x="91.12" y="470" width="190" height="50" as="geometry" />
        </mxCell>
        <mxCell id="-EUB2d9aFVAIrPmYeYgX-15" style="edgeStyle=orthogonalEdgeStyle;rounded=0;orthogonalLoop=1;jettySize=auto;html=1;entryX=0;entryY=0.5;entryDx=0;entryDy=0;" edge="1" parent="1" source="-EUB2d9aFVAIrPmYeYgX-6" target="-EUB2d9aFVAIrPmYeYgX-11">
          <mxGeometry relative="1" as="geometry" />
        </mxCell>
        <mxCell id="-EUB2d9aFVAIrPmYeYgX-21" style="edgeStyle=orthogonalEdgeStyle;rounded=0;orthogonalLoop=1;jettySize=auto;html=1;exitX=0.5;exitY=1;exitDx=0;exitDy=0;" edge="1" parent="1" source="-EUB2d9aFVAIrPmYeYgX-11" target="-EUB2d9aFVAIrPmYeYgX-8">
          <mxGeometry relative="1" as="geometry">
            <mxPoint x="-1345.8636363636365" y="680" as="sourcePoint" />
            <Array as="points">
              <mxPoint x="-1358" y="640" />
              <mxPoint x="-1680" y="640" />
            </Array>
          </mxGeometry>
        </mxCell>
        <mxCell id="-EUB2d9aFVAIrPmYeYgX-39" style="edgeStyle=orthogonalEdgeStyle;rounded=0;orthogonalLoop=1;jettySize=auto;html=1;" edge="1" parent="1" source="-EUB2d9aFVAIrPmYeYgX-30" target="-EUB2d9aFVAIrPmYeYgX-38">
          <mxGeometry relative="1" as="geometry" />
        </mxCell>
        <mxCell id="-EUB2d9aFVAIrPmYeYgX-46" style="edgeStyle=orthogonalEdgeStyle;rounded=0;orthogonalLoop=1;jettySize=auto;html=1;entryX=1;entryY=0.5;entryDx=0;entryDy=0;" edge="1" parent="1" source="-EUB2d9aFVAIrPmYeYgX-38" target="-EUB2d9aFVAIrPmYeYgX-5">
          <mxGeometry relative="1" as="geometry">
            <Array as="points">
              <mxPoint x="-1180" y="925" />
              <mxPoint x="-1180" y="1140" />
            </Array>
          </mxGeometry>
        </mxCell>
      </root>
    </mxGraphModel>
  </diagram>
</mxfile>
